# xmcd CD database file
#
# Track frame offsets:
#	150
#	12410
#	22027
#	34003
#	45329
#	59324
#	77269
#	89973
#	106194
#	116650
#	130393
#	142401
#	153455
#	165536
#
# Disc length: 2376 seconds
#
# Revision: 0
# Processed by: cddbd v1.5.2PL0 Copyright (c) Steve Scherf et al.
# Submitted via: CDex 1.51
#
DISCID=b909460e
DTITLE=Roger Tibbs - This Ole House
DYEAR=1900
DGENRE=Country
TTITLE0=The Lion Sleeps Tonight
TTITLE1=The Race Is On
TTITLE2=Rambling Rose
TTITLE3=Singing The Blues
TTITLE4=Guitars, Casillacs
TTITLE5=The Yodeller
TTITLE6=I Don't Hurt Anymore
TTITLE7=I'll Take you Home Again Kathleen
TTITLE8=Hello Mary Lou
TTITLE9=This Ole House
TTITLE10=The Auctioneer
TTITLE11=Blackboard Of My Heart
TTITLE12=Reuben James
TTITLE13=Where Did All The Yodellers Go
EXTD=
EXTT0=
EXTT1=
EXTT2=
EXTT3=
EXTT4=
EXTT5=
EXTT6=
EXTT7=
EXTT8=
EXTT9=
EXTT10=
EXTT11=
EXTT12=
EXTT13=
PLAYORDER=
